solid OpenSCAD_Model
  facet normal 0 0 -1
    outer loop
      vertex 2.28961 11.7142 -5
      vertex 3.12531 14.5868 -5
      vertex 4.16025 12.7942 -5
    endloop
  endfacet
  facet normal 0 0 -1
    outer loop
      vertex 1.25434 11.9343 -5
      vertex 3.12531 14.5868 -5
      vertex 2.28961 11.7142 -5
    endloop
  endfacet
  facet normal -0 0 -1
    outer loop
      vertex 3.12531 14.5868 -5
      vertex 1.25434 11.9343 -5
      vertex 1.56793 14.9178 -5
    endloop
  endfacet
  facet normal 0 0 -1
    outer loop
      vertex -1.25434 11.9343 -5
      vertex 1.56793 14.9178 -5
      vertex 1.25434 11.9343 -5
    endloop
  endfacet
  facet normal 0 0 -1
    outer loop
      vertex -1.25434 11.9343 -5
      vertex -1.56793 14.9178 -5
      vertex 1.56793 14.9178 -5
    endloop
  endfacet
  facet normal 0 0 -1
    outer loop
      vertex -3.7082 11.4127 -5
      vertex -1.56793 14.9178 -5
      vertex -1.25434 11.9343 -5
    endloop
  endfacet
  facet normal 0 0 -1
    outer loop
      vertex -3.7082 11.4127 -5
      vertex -4.63525 14.2658 -5
      vertex -1.56793 14.9178 -5
    endloop
  endfacet
  facet normal 0 0 -1
    outer loop
      vertex -6 10.3923 -5
      vertex -4.63525 14.2658 -5
      vertex -3.7082 11.4127 -5
    endloop
  endfacet
  facet normal 0 0 -1
    outer loop
      vertex -6 10.3923 -5
      vertex -7.5 12.9904 -5
      vertex -4.63525 14.2658 -5
    endloop
  endfacet
  facet normal 0 0 -1
    outer loop
      vertex -8.02957 8.91774 -5
      vertex -7.5 12.9904 -5
      vertex -6 10.3923 -5
    endloop
  endfacet
  facet normal 0 0 -1
    outer loop
      vertex -10.037 11.1472 -5
      vertex -8.02957 8.91774 -5
      vertex -9.7082 7.05342 -5
    endloop
  endfacet
  facet normal 0 0 -1
    outer loop
      vertex -8.02957 8.91774 -5
      vertex -10.037 11.1472 -5
      vertex -7.5 12.9904 -5
    endloop
  endfacet
  facet normal 0 0 -1
    outer loop
      vertex -12.1353 8.81678 -5
      vertex -9.7082 7.05342 -5
      vertex -10.9625 4.88084 -5
    endloop
  endfacet
  facet normal 0 0 -1
    outer loop
      vertex -14.1952 4.58679 -5
      vertex -10.9625 4.88084 -5
      vertex -11.2896 3.87425 -5
    endloop
  endfacet
  facet normal 0 0 -1
    outer loop
      vertex -9.7082 7.05342 -5
      vertex -12.1353 8.81678 -5
      vertex -10.037 11.1472 -5
    endloop
  endfacet
  facet normal 0 0 -1
    outer loop
      vertex -14.1952 4.58679 -5
      vertex -11.2896 3.87425 -5
      vertex -13.1603 2.79423 -5
    endloop
  endfacet
  facet normal 0 0 -1
    outer loop
      vertex -10.9625 4.88084 -5
      vertex -13.7032 6.10105 -5
      vertex -12.1353 8.81678 -5
    endloop
  endfacet
  facet normal -0 0 -1
    outer loop
      vertex -10.9625 4.88084 -5
      vertex -14.1952 4.58679 -5
      vertex -13.7032 6.10105 -5
    endloop
  endfacet
  facet normal -0.866029 -0.499993 0
    outer loop
      vertex 4.16025 12.7942 -10
      vertex 3.12531 14.5868 -5
      vertex 3.12531 14.5868 -10
    endloop
  endfacet
  facet normal -0.866029 -0.499993 0
    outer loop
      vertex 3.12531 14.5868 -5
      vertex 4.16025 12.7942 -10
      vertex 4.16025 12.7942 -5
    endloop
  endfacet
  facet normal -0.499995 0.866028 0
    outer loop
      vertex 4.16025 12.7942 -10
      vertex 2.28961 11.7142 -5
      vertex 4.16025 12.7942 -5
    endloop
  endfacet
  facet normal -0.499995 0.866028 0
    outer loop
      vertex 2.28961 11.7142 -5
      vertex 4.16025 12.7942 -10
      vertex 2.28961 11.7142 -10
    endloop
  endfacet
  facet normal -0.49999 0.866031 0
    outer loop
      vertex -11.2896 3.87425 -10
      vertex -13.1603 2.79423 -5
      vertex -11.2896 3.87425 -5
    endloop
  endfacet
  facet normal -0.49999 0.866031 0
    outer loop
      vertex -13.1603 2.79423 -5
      vertex -11.2896 3.87425 -10
      vertex -13.1603 2.79423 -10
    endloop
  endfacet
  facet normal -0 0 -1
    outer loop
      vertex -11.7378 -2.49494 -10
      vertex -13.1603 -2.79423 -10
      vertex -12 0 -10
    endloop
  endfacet
  facet normal 0 0 -1
    outer loop
      vertex -13.1603 -2.79423 -10
      vertex -11.7378 -2.49494 -10
      vertex -11.2896 -3.87425 -10
    endloop
  endfacet
  facet normal 0 0 -1
    outer loop
      vertex -15 0 -10
      vertex -12 0 -10
      vertex -13.1603 -2.79423 -10
    endloop
  endfacet
  facet normal 0 0 -1
    outer loop
      vertex -11.7378 2.49494 -10
      vertex -13.1603 2.79423 -10
      vertex -11.2896 3.87425 -10
    endloop
  endfacet
  facet normal 0 -0 -1
    outer loop
      vertex -13.1603 2.79423 -10
      vertex -12 0 -10
      vertex -15 0 -10
    endloop
  endfacet
  facet normal 0 0 -1
    outer loop
      vertex -14.6722 -3.11868 -10
      vertex -13.1603 -2.79423 -10
      vertex -14.1952 -4.58679 -10
    endloop
  endfacet
  facet normal 0 0 -1
    outer loop
      vertex -15 0 -10
      vertex -13.1603 -2.79423 -10
      vertex -14.6722 -3.11868 -10
    endloop
  endfacet
  facet normal 0 0 -1
    outer loop
      vertex -12 0 -10
      vertex -13.1603 2.79423 -10
      vertex -11.7378 2.49494 -10
    endloop
  endfacet
  facet normal 0 -0 -1
    outer loop
      vertex -14.6722 3.11868 -10
      vertex -13.1603 2.79423 -10
      vertex -15 0 -10
    endloop
  endfacet
  facet normal 0 0 -1
    outer loop
      vertex -13.1603 2.79423 -10
      vertex -14.6722 3.11868 -10
      vertex -14.1952 4.58679 -10
    endloop
  endfacet
  facet normal -0 0 -1
    outer loop
      vertex 4.63525 -14.2658 -10
      vertex 3.12531 -14.5868 -10
      vertex 4.16025 -12.7942 -10
    endloop
  endfacet
  facet normal 0 0 -1
    outer loop
      vertex 10.037 -11.1472 -10
      vertex 9 -10 -10
      vertex 11.0699 -10 -10
    endloop
  endfacet
  facet normal 0 0 -1
    outer loop
      vertex 9 -10 -10
      vertex 8.02957 -8.91774 -10
      vertex 9 -7.83996 -10
    endloop
  endfacet
  facet normal 0 0 -1
    outer loop
      vertex 7.5 -12.9904 -10
      vertex 9 -10 -10
      vertex 10.037 -11.1472 -10
    endloop
  endfacet
  facet normal 0 0 -1
    outer loop
      vertex 6 -10.3923 -10
      vertex 9 -10 -10
      vertex 7.5 -12.9904 -10
    endloop
  endfacet
  facet normal -0 0 -1
    outer loop
      vertex 9 -10 -10
      vertex 6 -10.3923 -10
      vertex 8.02957 -8.91774 -10
    endloop
  endfacet
  facet normal 0 0 -1
    outer loop
      vertex 4.16025 -12.7942 -10
      vertex 7.5 -12.9904 -10
      vertex 4.63525 -14.2658 -10
    endloop
  endfacet
  facet normal 0 0 -1
    outer loop
      vertex 7.5 -12.9904 -10
      vertex 4.16025 -12.7942 -10
      vertex 6 -10.3923 -10
    endloop
  endfacet
  facet normal 0 0 -1
    outer loop
      vertex 4.16025 -12.7942 -10
      vertex 3.7082 -11.4127 -10
      vertex 6 -10.3923 -10
    endloop
  endfacet
  facet normal 0 -0 -1
    outer loop
      vertex 3.7082 -11.4127 -10
      vertex 4.16025 -12.7942 -10
      vertex 2.28961 -11.7142 -10
    endloop
  endfacet
  facet normal 0 0 -1
    outer loop
      vertex 9 7.83996 -10
      vertex 8.02957 8.91774 -10
      vertex 9 10 -10
    endloop
  endfacet
  facet normal 0 0 -1
    outer loop
      vertex 9 10 -10
      vertex 10.037 11.1472 -10
      vertex 11.0699 10 -10
    endloop
  endfacet
  facet normal 0 0 -1
    outer loop
      vertex 9 10 -10
      vertex 7.5 12.9904 -10
      vertex 10.037 11.1472 -10
    endloop
  endfacet
  facet normal 0 0 -1
    outer loop
      vertex 6 10.3923 -10
      vertex 9 10 -10
      vertex 8.02957 8.91774 -10
    endloop
  endfacet
  facet normal 0 0 -1
    outer loop
      vertex 9 10 -10
      vertex 6 10.3923 -10
      vertex 7.5 12.9904 -10
    endloop
  endfacet
  facet normal 0 0 -1
    outer loop
      vertex 4.16025 12.7942 -10
      vertex 7.5 12.9904 -10
      vertex 6 10.3923 -10
    endloop
  endfacet
  facet normal -0 0 -1
    outer loop
      vertex 7.5 12.9904 -10
      vertex 4.16025 12.7942 -10
      vertex 4.63525 14.2658 -10
    endloop
  endfacet
  facet normal 0 0 -1
    outer loop
      vertex 3.7082 11.4127 -10
      vertex 4.16025 12.7942 -10
      vertex 6 10.3923 -10
    endloop
  endfacet
  facet normal 0 0 -1
    outer loop
      vertex 4.16025 12.7942 -10
      vertex 3.7082 11.4127 -10
      vertex 2.28961 11.7142 -10
    endloop
  endfacet
  facet normal -0 0 -1
    outer loop
      vertex 4.63525 14.2658 -10
      vertex 4.16025 12.7942 -10
      vertex 3.12531 14.5868 -10
    endloop
  endfacet
  facet normal 0.866033 0.499987 0
    outer loop
      vertex -13.1603 2.79423 -5
      vertex -14.1952 4.58679 -10
      vertex -14.1952 4.58679 -5
    endloop
  endfacet
  facet normal 0.866033 0.499987 0
    outer loop
      vertex -14.1952 4.58679 -10
      vertex -13.1603 2.79423 -5
      vertex -13.1603 2.79423 -10
    endloop
  endfacet
  facet normal 0 0 -1
    outer loop
      vertex 3.12531 -14.5868 -5
      vertex 2.28961 -11.7142 -5
      vertex 4.16025 -12.7942 -5
    endloop
  endfacet
  facet normal 0 0 -1
    outer loop
      vertex 1.25434 -11.9343 -5
      vertex 3.12531 -14.5868 -5
      vertex 1.56793 -14.9178 -5
    endloop
  endfacet
  facet normal 0 0 -1
    outer loop
      vertex 3.12531 -14.5868 -5
      vertex 1.25434 -11.9343 -5
      vertex 2.28961 -11.7142 -5
    endloop
  endfacet
  facet normal 0 0 -1
    outer loop
      vertex 1.56793 -14.9178 -5
      vertex -1.25434 -11.9343 -5
      vertex 1.25434 -11.9343 -5
    endloop
  endfacet
  facet normal 0 0 -1
    outer loop
      vertex -1.56793 -14.9178 -5
      vertex -1.25434 -11.9343 -5
      vertex 1.56793 -14.9178 -5
    endloop
  endfacet
  facet normal 0 0 -1
    outer loop
      vertex -1.56793 -14.9178 -5
      vertex -3.7082 -11.4127 -5
      vertex -1.25434 -11.9343 -5
    endloop
  endfacet
  facet normal 0 0 -1
    outer loop
      vertex -4.63525 -14.2658 -5
      vertex -3.7082 -11.4127 -5
      vertex -1.56793 -14.9178 -5
    endloop
  endfacet
  facet normal 0 0 -1
    outer loop
      vertex -4.63525 -14.2658 -5
      vertex -6 -10.3923 -5
      vertex -3.7082 -11.4127 -5
    endloop
  endfacet
  facet normal 0 0 -1
    outer loop
      vertex -7.5 -12.9904 -5
      vertex -6 -10.3923 -5
      vertex -4.63525 -14.2658 -5
    endloop
  endfacet
  facet normal 0 0 -1
    outer loop
      vertex -7.5 -12.9904 -5
      vertex -8.02957 -8.91774 -5
      vertex -6 -10.3923 -5
    endloop
  endfacet
  facet normal 0 0 -1
    outer loop
      vertex -10.037 -11.1472 -5
      vertex -8.02957 -8.91774 -5
      vertex -7.5 -12.9904 -5
    endloop
  endfacet
  facet normal -0 0 -1
    outer loop
      vertex -8.02957 -8.91774 -5
      vertex -10.037 -11.1472 -5
      vertex -9.7082 -7.05342 -5
    endloop
  endfacet
  facet normal 0 0 -1
    outer loop
      vertex -12.1353 -8.81678 -5
      vertex -9.7082 -7.05342 -5
      vertex -10.037 -11.1472 -5
    endloop
  endfacet
  facet normal -0 0 -1
    outer loop
      vertex -9.7082 -7.05342 -5
      vertex -12.1353 -8.81678 -5
      vertex -10.9625 -4.88084 -5
    endloop
  endfacet
  facet normal 0 0 -1
    outer loop
      vertex -13.7032 -6.10105 -5
      vertex -10.9625 -4.88084 -5
      vertex -12.1353 -8.81678 -5
    endloop
  endfacet
  facet normal 0 0 -1
    outer loop
      vertex -14.1952 -4.58679 -5
      vertex -10.9625 -4.88084 -5
      vertex -13.7032 -6.10105 -5
    endloop
  endfacet
  facet normal 0 0 -1
    outer loop
      vertex -10.9625 -4.88084 -5
      vertex -14.1952 -4.58679 -5
      vertex -11.2896 -3.87425 -5
    endloop
  endfacet
  facet normal -0 0 -1
    outer loop
      vertex -11.2896 -3.87425 -5
      vertex -14.1952 -4.58679 -5
      vertex -13.1603 -2.79423 -5
    endloop
  endfacet
  facet normal -0.49999 -0.866031 0
    outer loop
      vertex -13.1603 -2.79423 -10
      vertex -11.2896 -3.87425 -5
      vertex -13.1603 -2.79423 -5
    endloop
  endfacet
  facet normal -0.49999 -0.866031 -0
    outer loop
      vertex -11.2896 -3.87425 -5
      vertex -13.1603 -2.79423 -10
      vertex -11.2896 -3.87425 -10
    endloop
  endfacet
  facet normal -0.499995 -0.866028 0
    outer loop
      vertex 2.28961 -11.7142 -10
      vertex 4.16025 -12.7942 -5
      vertex 2.28961 -11.7142 -5
    endloop
  endfacet
  facet normal -0.499995 -0.866028 -0
    outer loop
      vertex 4.16025 -12.7942 -5
      vertex 2.28961 -11.7142 -10
      vertex 4.16025 -12.7942 -10
    endloop
  endfacet
  facet normal 0.866033 -0.499987 0
    outer loop
      vertex -14.1952 -4.58679 -5
      vertex -13.1603 -2.79423 -10
      vertex -13.1603 -2.79423 -5
    endloop
  endfacet
  facet normal 0.866033 -0.499987 0
    outer loop
      vertex -13.1603 -2.79423 -10
      vertex -14.1952 -4.58679 -5
      vertex -14.1952 -4.58679 -10
    endloop
  endfacet
  facet normal -0.866029 0.499993 0
    outer loop
      vertex 3.12531 -14.5868 -10
      vertex 4.16025 -12.7942 -5
      vertex 4.16025 -12.7942 -10
    endloop
  endfacet
  facet normal -0.866029 0.499993 0
    outer loop
      vertex 4.16025 -12.7942 -5
      vertex 3.12531 -14.5868 -10
      vertex 3.12531 -14.5868 -5
    endloop
  endfacet
  facet normal 1 -0 0
    outer loop
      vertex 9 -10 -5
      vertex 9 -7.83996 -10
      vertex 9 -7.83996 -5
    endloop
  endfacet
  facet normal 1 0 0
    outer loop
      vertex 9 -7.83996 -10
      vertex 9 -10 -5
      vertex 9 -10 -10
    endloop
  endfacet
  facet normal 1 -0 0
    outer loop
      vertex 9 7.83996 -5
      vertex 9 10 -10
      vertex 9 10 -5
    endloop
  endfacet
  facet normal 1 0 0
    outer loop
      vertex 9 10 -10
      vertex 9 7.83996 -5
      vertex 9 7.83996 -10
    endloop
  endfacet
  facet normal 0 0 -1
    outer loop
      vertex 12 0 -5
      vertex 15 0 -5
      vertex 14.6722 -3.11868 -5
    endloop
  endfacet
  facet normal 0 0 -1
    outer loop
      vertex 11.7378 -2.49494 -5
      vertex 14.6722 -3.11868 -5
      vertex 13.7032 -6.10105 -5
    endloop
  endfacet
  facet normal 0 0 -1
    outer loop
      vertex 15 0 -5
      vertex 12 0 -5
      vertex 14.6722 3.11868 -5
    endloop
  endfacet
  facet normal 0 0 -1
    outer loop
      vertex 10.9625 -4.88084 -5
      vertex 13.7032 -6.10105 -5
      vertex 12.1353 -8.81678 -5
    endloop
  endfacet
  facet normal 0 0 -1
    outer loop
      vertex 11.7378 2.49494 -5
      vertex 14.6722 3.11868 -5
      vertex 12 0 -5
    endloop
  endfacet
  facet normal -0 0 -1
    outer loop
      vertex 14.6722 3.11868 -5
      vertex 11.7378 2.49494 -5
      vertex 13.7032 6.10105 -5
    endloop
  endfacet
  facet normal 0 0 -1
    outer loop
      vertex 14.6722 -3.11868 -5
      vertex 11.7378 -2.49494 -5
      vertex 12 0 -5
    endloop
  endfacet
  facet normal 0 0 -1
    outer loop
      vertex 9.7082 -7.05342 -5
      vertex 12.1353 -8.81678 -5
      vertex 11.0699 -10 -5
    endloop
  endfacet
  facet normal 0 0 -1
    outer loop
      vertex 13.7032 -6.10105 -5
      vertex 10.9625 -4.88084 -5
      vertex 11.7378 -2.49494 -5
    endloop
  endfacet
  facet normal 0 0 -1
    outer loop
      vertex 12.1353 -8.81678 -5
      vertex 9.7082 -7.05342 -5
      vertex 10.9625 -4.88084 -5
    endloop
  endfacet
  facet normal 0 0 -1
    outer loop
      vertex 9 -7.83996 -5
      vertex 11.0699 -10 -5
      vertex 9 -10 -5
    endloop
  endfacet
  facet normal 0 0 -1
    outer loop
      vertex 11.0699 -10 -5
      vertex 9 -7.83996 -5
      vertex 9.7082 -7.05342 -5
    endloop
  endfacet
  facet normal 0 0 -1
    outer loop
      vertex 10.9625 4.88084 -5
      vertex 13.7032 6.10105 -5
      vertex 11.7378 2.49494 -5
    endloop
  endfacet
  facet normal -0 0 -1
    outer loop
      vertex 13.7032 6.10105 -5
      vertex 10.9625 4.88084 -5
      vertex 12.1353 8.81678 -5
    endloop
  endfacet
  facet normal 0 0 -1
    outer loop
      vertex 9.7082 7.05342 -5
      vertex 12.1353 8.81678 -5
      vertex 10.9625 4.88084 -5
    endloop
  endfacet
  facet normal -0 0 -1
    outer loop
      vertex 12.1353 8.81678 -5
      vertex 9.7082 7.05342 -5
      vertex 11.0699 10 -5
    endloop
  endfacet
  facet normal 0 0 -1
    outer loop
      vertex 9 7.83996 -5
      vertex 11.0699 10 -5
      vertex 9.7082 7.05342 -5
    endloop
  endfacet
  facet normal -0 0 -1
    outer loop
      vertex 11.0699 10 -5
      vertex 9 7.83996 -5
      vertex 9 10 -5
    endloop
  endfacet
  facet normal 0 -1 0
    outer loop
      vertex 9 10 -10
      vertex 11.0699 10 -5
      vertex 9 10 -5
    endloop
  endfacet
  facet normal 0 -1 -0
    outer loop
      vertex 11.0699 10 -5
      vertex 9 10 -10
      vertex 11.0699 10 -10
    endloop
  endfacet
  facet normal 0 1 -0
    outer loop
      vertex 11.0699 -10 -10
      vertex 9 -10 -5
      vertex 11.0699 -10 -5
    endloop
  endfacet
  facet normal 0 1 0
    outer loop
      vertex 9 -10 -5
      vertex 11.0699 -10 -10
      vertex 9 -10 -10
    endloop
  endfacet
  facet normal 0 0 1
    outer loop
      vertex -11.7378 2.49494 10
      vertex -13.1603 2.79423 10
      vertex -12 0 10
    endloop
  endfacet
  facet normal -0 0 1
    outer loop
      vertex -13.1603 2.79423 10
      vertex -11.7378 2.49494 10
      vertex -11.2896 3.87425 10
    endloop
  endfacet
  facet normal 0 0 1
    outer loop
      vertex -15 0 10
      vertex -12 0 10
      vertex -13.1603 2.79423 10
    endloop
  endfacet
  facet normal 0 0 1
    outer loop
      vertex -11.7378 -2.49494 10
      vertex -13.1603 -2.79423 10
      vertex -11.2896 -3.87425 10
    endloop
  endfacet
  facet normal 0 -0 1
    outer loop
      vertex -13.1603 -2.79423 10
      vertex -12 0 10
      vertex -15 0 10
    endloop
  endfacet
  facet normal -0 0 1
    outer loop
      vertex -14.6722 3.11868 10
      vertex -13.1603 2.79423 10
      vertex -14.1952 4.58679 10
    endloop
  endfacet
  facet normal 0 0 1
    outer loop
      vertex -15 0 10
      vertex -13.1603 2.79423 10
      vertex -14.6722 3.11868 10
    endloop
  endfacet
  facet normal 0 0 1
    outer loop
      vertex -12 0 10
      vertex -13.1603 -2.79423 10
      vertex -11.7378 -2.49494 10
    endloop
  endfacet
  facet normal 0 -0 1
    outer loop
      vertex -14.6722 -3.11868 10
      vertex -13.1603 -2.79423 10
      vertex -15 0 10
    endloop
  endfacet
  facet normal 0 0 1
    outer loop
      vertex -13.1603 -2.79423 10
      vertex -14.6722 -3.11868 10
      vertex -14.1952 -4.58679 10
    endloop
  endfacet
  facet normal 0 0 1
    outer loop
      vertex 4.63525 14.2658 10
      vertex 3.12531 14.5868 10
      vertex 4.16025 12.7942 10
    endloop
  endfacet
  facet normal 0 0 1
    outer loop
      vertex 10.037 11.1472 10
      vertex 9 10 10
      vertex 11.0699 10 10
    endloop
  endfacet
  facet normal 0 0 1
    outer loop
      vertex 9 10 10
      vertex 8.02957 8.91774 10
      vertex 9 7.83996 10
    endloop
  endfacet
  facet normal 0 0 1
    outer loop
      vertex 7.5 12.9904 10
      vertex 9 10 10
      vertex 10.037 11.1472 10
    endloop
  endfacet
  facet normal -0 0 1
    outer loop
      vertex 6 10.3923 10
      vertex 9 10 10
      vertex 7.5 12.9904 10
    endloop
  endfacet
  facet normal 0 0 1
    outer loop
      vertex 9 10 10
      vertex 6 10.3923 10
      vertex 8.02957 8.91774 10
    endloop
  endfacet
  facet normal 0 0 1
    outer loop
      vertex 4.16025 12.7942 10
      vertex 7.5 12.9904 10
      vertex 4.63525 14.2658 10
    endloop
  endfacet
  facet normal 0 0 1
    outer loop
      vertex 7.5 12.9904 10
      vertex 4.16025 12.7942 10
      vertex 6 10.3923 10
    endloop
  endfacet
  facet normal 0 0 1
    outer loop
      vertex 4.16025 12.7942 10
      vertex 3.7082 11.4127 10
      vertex 6 10.3923 10
    endloop
  endfacet
  facet normal 0 -0 1
    outer loop
      vertex 3.7082 11.4127 10
      vertex 4.16025 12.7942 10
      vertex 2.28961 11.7142 10
    endloop
  endfacet
  facet normal 0 0 1
    outer loop
      vertex 9 -7.83996 10
      vertex 8.02957 -8.91774 10
      vertex 9 -10 10
    endloop
  endfacet
  facet normal -0 0 1
    outer loop
      vertex 9 -10 10
      vertex 10.037 -11.1472 10
      vertex 11.0699 -10 10
    endloop
  endfacet
  facet normal 0 0 1
    outer loop
      vertex 9 -10 10
      vertex 7.5 -12.9904 10
      vertex 10.037 -11.1472 10
    endloop
  endfacet
  facet normal 0 0 1
    outer loop
      vertex 6 -10.3923 10
      vertex 9 -10 10
      vertex 8.02957 -8.91774 10
    endloop
  endfacet
  facet normal 0 0 1
    outer loop
      vertex 9 -10 10
      vertex 6 -10.3923 10
      vertex 7.5 -12.9904 10
    endloop
  endfacet
  facet normal -0 0 1
    outer loop
      vertex 4.16025 -12.7942 10
      vertex 7.5 -12.9904 10
      vertex 6 -10.3923 10
    endloop
  endfacet
  facet normal 0 0 1
    outer loop
      vertex 7.5 -12.9904 10
      vertex 4.16025 -12.7942 10
      vertex 4.63525 -14.2658 10
    endloop
  endfacet
  facet normal -0 0 1
    outer loop
      vertex 3.7082 -11.4127 10
      vertex 4.16025 -12.7942 10
      vertex 6 -10.3923 10
    endloop
  endfacet
  facet normal 0 0 1
    outer loop
      vertex 4.16025 -12.7942 10
      vertex 3.7082 -11.4127 10
      vertex 2.28961 -11.7142 10
    endloop
  endfacet
  facet normal 0 0 1
    outer loop
      vertex 4.63525 -14.2658 10
      vertex 4.16025 -12.7942 10
      vertex 3.12531 -14.5868 10
    endloop
  endfacet
  facet normal -0.866029 -0.499993 0
    outer loop
      vertex 4.16025 12.7942 5
      vertex 3.12531 14.5868 10
      vertex 3.12531 14.5868 5
    endloop
  endfacet
  facet normal -0.866029 -0.499993 0
    outer loop
      vertex 3.12531 14.5868 10
      vertex 4.16025 12.7942 5
      vertex 4.16025 12.7942 10
    endloop
  endfacet
  facet normal -0.499995 0.866028 0
    outer loop
      vertex 4.16025 12.7942 5
      vertex 2.28961 11.7142 10
      vertex 4.16025 12.7942 10
    endloop
  endfacet
  facet normal -0.499995 0.866028 0
    outer loop
      vertex 2.28961 11.7142 10
      vertex 4.16025 12.7942 5
      vertex 2.28961 11.7142 5
    endloop
  endfacet
  facet normal -0.49999 0.866031 0
    outer loop
      vertex -11.2896 3.87425 5
      vertex -13.1603 2.79423 10
      vertex -11.2896 3.87425 10
    endloop
  endfacet
  facet normal -0.49999 0.866031 0
    outer loop
      vertex -13.1603 2.79423 10
      vertex -11.2896 3.87425 5
      vertex -13.1603 2.79423 5
    endloop
  endfacet
  facet normal 0 0 1
    outer loop
      vertex 3.12531 14.5868 5
      vertex 2.28961 11.7142 5
      vertex 4.16025 12.7942 5
    endloop
  endfacet
  facet normal 0 0 1
    outer loop
      vertex 1.25434 11.9343 5
      vertex 3.12531 14.5868 5
      vertex 1.56793 14.9178 5
    endloop
  endfacet
  facet normal 0 0 1
    outer loop
      vertex 3.12531 14.5868 5
      vertex 1.25434 11.9343 5
      vertex 2.28961 11.7142 5
    endloop
  endfacet
  facet normal 0 0 1
    outer loop
      vertex 1.56793 14.9178 5
      vertex -1.25434 11.9343 5
      vertex 1.25434 11.9343 5
    endloop
  endfacet
  facet normal -0 0 1
    outer loop
      vertex -1.56793 14.9178 5
      vertex -1.25434 11.9343 5
      vertex 1.56793 14.9178 5
    endloop
  endfacet
  facet normal 0 0 1
    outer loop
      vertex -1.56793 14.9178 5
      vertex -3.7082 11.4127 5
      vertex -1.25434 11.9343 5
    endloop
  endfacet
  facet normal -0 0 1
    outer loop
      vertex -4.63525 14.2658 5
      vertex -3.7082 11.4127 5
      vertex -1.56793 14.9178 5
    endloop
  endfacet
  facet normal 0 0 1
    outer loop
      vertex -4.63525 14.2658 5
      vertex -6 10.3923 5
      vertex -3.7082 11.4127 5
    endloop
  endfacet
  facet normal -0 0 1
    outer loop
      vertex -7.5 12.9904 5
      vertex -6 10.3923 5
      vertex -4.63525 14.2658 5
    endloop
  endfacet
  facet normal 0 0 1
    outer loop
      vertex -7.5 12.9904 5
      vertex -8.02957 8.91774 5
      vertex -6 10.3923 5
    endloop
  endfacet
  facet normal -0 0 1
    outer loop
      vertex -10.037 11.1472 5
      vertex -8.02957 8.91774 5
      vertex -7.5 12.9904 5
    endloop
  endfacet
  facet normal 0 0 1
    outer loop
      vertex -8.02957 8.91774 5
      vertex -10.037 11.1472 5
      vertex -9.7082 7.05342 5
    endloop
  endfacet
  facet normal -0 0 1
    outer loop
      vertex -12.1353 8.81678 5
      vertex -9.7082 7.05342 5
      vertex -10.037 11.1472 5
    endloop
  endfacet
  facet normal 0 0 1
    outer loop
      vertex -9.7082 7.05342 5
      vertex -12.1353 8.81678 5
      vertex -10.9625 4.88084 5
    endloop
  endfacet
  facet normal -0 0 1
    outer loop
      vertex -13.7032 6.10105 5
      vertex -10.9625 4.88084 5
      vertex -12.1353 8.81678 5
    endloop
  endfacet
  facet normal 0 0 1
    outer loop
      vertex -14.1952 4.58679 5
      vertex -10.9625 4.88084 5
      vertex -13.7032 6.10105 5
    endloop
  endfacet
  facet normal 0 0 1
    outer loop
      vertex -10.9625 4.88084 5
      vertex -14.1952 4.58679 5
      vertex -11.2896 3.87425 5
    endloop
  endfacet
  facet normal 0 0 1
    outer loop
      vertex -11.2896 3.87425 5
      vertex -14.1952 4.58679 5
      vertex -13.1603 2.79423 5
    endloop
  endfacet
  facet normal 0.866033 0.499987 0
    outer loop
      vertex -13.1603 2.79423 10
      vertex -14.1952 4.58679 5
      vertex -14.1952 4.58679 10
    endloop
  endfacet
  facet normal 0.866033 0.499987 0
    outer loop
      vertex -14.1952 4.58679 5
      vertex -13.1603 2.79423 10
      vertex -13.1603 2.79423 5
    endloop
  endfacet
  facet normal -0.49999 -0.866031 0
    outer loop
      vertex -13.1603 -2.79423 5
      vertex -11.2896 -3.87425 10
      vertex -13.1603 -2.79423 10
    endloop
  endfacet
  facet normal -0.49999 -0.866031 -0
    outer loop
      vertex -11.2896 -3.87425 10
      vertex -13.1603 -2.79423 5
      vertex -11.2896 -3.87425 5
    endloop
  endfacet
  facet normal -0.499995 -0.866028 0
    outer loop
      vertex 2.28961 -11.7142 5
      vertex 4.16025 -12.7942 10
      vertex 2.28961 -11.7142 10
    endloop
  endfacet
  facet normal -0.499995 -0.866028 -0
    outer loop
      vertex 4.16025 -12.7942 10
      vertex 2.28961 -11.7142 5
      vertex 4.16025 -12.7942 5
    endloop
  endfacet
  facet normal 0.866033 -0.499987 0
    outer loop
      vertex -14.1952 -4.58679 10
      vertex -13.1603 -2.79423 5
      vertex -13.1603 -2.79423 10
    endloop
  endfacet
  facet normal 0.866033 -0.499987 0
    outer loop
      vertex -13.1603 -2.79423 5
      vertex -14.1952 -4.58679 10
      vertex -14.1952 -4.58679 5
    endloop
  endfacet
  facet normal 0 0 1
    outer loop
      vertex 2.28961 -11.7142 5
      vertex 3.12531 -14.5868 5
      vertex 4.16025 -12.7942 5
    endloop
  endfacet
  facet normal -0 0 1
    outer loop
      vertex 1.25434 -11.9343 5
      vertex 3.12531 -14.5868 5
      vertex 2.28961 -11.7142 5
    endloop
  endfacet
  facet normal 0 0 1
    outer loop
      vertex 3.12531 -14.5868 5
      vertex 1.25434 -11.9343 5
      vertex 1.56793 -14.9178 5
    endloop
  endfacet
  facet normal -0 0 1
    outer loop
      vertex -1.25434 -11.9343 5
      vertex 1.56793 -14.9178 5
      vertex 1.25434 -11.9343 5
    endloop
  endfacet
  facet normal 0 0 1
    outer loop
      vertex -1.25434 -11.9343 5
      vertex -1.56793 -14.9178 5
      vertex 1.56793 -14.9178 5
    endloop
  endfacet
  facet normal 0 0 1
    outer loop
      vertex -3.7082 -11.4127 5
      vertex -1.56793 -14.9178 5
      vertex -1.25434 -11.9343 5
    endloop
  endfacet
  facet normal 0 0 1
    outer loop
      vertex -3.7082 -11.4127 5
      vertex -4.63525 -14.2658 5
      vertex -1.56793 -14.9178 5
    endloop
  endfacet
  facet normal 0 0 1
    outer loop
      vertex -6 -10.3923 5
      vertex -4.63525 -14.2658 5
      vertex -3.7082 -11.4127 5
    endloop
  endfacet
  facet normal 0 0 1
    outer loop
      vertex -6 -10.3923 5
      vertex -7.5 -12.9904 5
      vertex -4.63525 -14.2658 5
    endloop
  endfacet
  facet normal 0 0 1
    outer loop
      vertex -8.02957 -8.91774 5
      vertex -7.5 -12.9904 5
      vertex -6 -10.3923 5
    endloop
  endfacet
  facet normal 0 0 1
    outer loop
      vertex -10.037 -11.1472 5
      vertex -8.02957 -8.91774 5
      vertex -9.7082 -7.05342 5
    endloop
  endfacet
  facet normal 0 0 1
    outer loop
      vertex -8.02957 -8.91774 5
      vertex -10.037 -11.1472 5
      vertex -7.5 -12.9904 5
    endloop
  endfacet
  facet normal 0 0 1
    outer loop
      vertex -12.1353 -8.81678 5
      vertex -9.7082 -7.05342 5
      vertex -10.9625 -4.88084 5
    endloop
  endfacet
  facet normal -0 0 1
    outer loop
      vertex -14.1952 -4.58679 5
      vertex -10.9625 -4.88084 5
      vertex -11.2896 -3.87425 5
    endloop
  endfacet
  facet normal 0 0 1
    outer loop
      vertex -9.7082 -7.05342 5
      vertex -12.1353 -8.81678 5
      vertex -10.037 -11.1472 5
    endloop
  endfacet
  facet normal 0 0 1
    outer loop
      vertex -14.1952 -4.58679 5
      vertex -11.2896 -3.87425 5
      vertex -13.1603 -2.79423 5
    endloop
  endfacet
  facet normal 0 0 1
    outer loop
      vertex -10.9625 -4.88084 5
      vertex -13.7032 -6.10105 5
      vertex -12.1353 -8.81678 5
    endloop
  endfacet
  facet normal 0 0 1
    outer loop
      vertex -10.9625 -4.88084 5
      vertex -14.1952 -4.58679 5
      vertex -13.7032 -6.10105 5
    endloop
  endfacet
  facet normal -0.866029 0.499993 0
    outer loop
      vertex 3.12531 -14.5868 5
      vertex 4.16025 -12.7942 10
      vertex 4.16025 -12.7942 5
    endloop
  endfacet
  facet normal -0.866029 0.499993 0
    outer loop
      vertex 4.16025 -12.7942 10
      vertex 3.12531 -14.5868 5
      vertex 3.12531 -14.5868 10
    endloop
  endfacet
  facet normal 1 -0 0
    outer loop
      vertex 9 -10 10
      vertex 9 -7.83996 5
      vertex 9 -7.83996 10
    endloop
  endfacet
  facet normal 1 0 0
    outer loop
      vertex 9 -7.83996 5
      vertex 9 -10 10
      vertex 9 -10 5
    endloop
  endfacet
  facet normal 1 -0 0
    outer loop
      vertex 9 7.83996 10
      vertex 9 10 5
      vertex 9 10 10
    endloop
  endfacet
  facet normal 1 0 0
    outer loop
      vertex 9 10 5
      vertex 9 7.83996 10
      vertex 9 7.83996 5
    endloop
  endfacet
  facet normal 0 -1 0
    outer loop
      vertex 9 10 5
      vertex 11.0699 10 10
      vertex 9 10 10
    endloop
  endfacet
  facet normal 0 -1 -0
    outer loop
      vertex 11.0699 10 10
      vertex 9 10 5
      vertex 11.0699 10 5
    endloop
  endfacet
  facet normal 0 0 1
    outer loop
      vertex 12 0 5
      vertex 15 0 5
      vertex 14.6722 3.11868 5
    endloop
  endfacet
  facet normal 0 0 1
    outer loop
      vertex 11.7378 2.49494 5
      vertex 14.6722 3.11868 5
      vertex 13.7032 6.10105 5
    endloop
  endfacet
  facet normal 0 0 1
    outer loop
      vertex 15 0 5
      vertex 12 0 5
      vertex 14.6722 -3.11868 5
    endloop
  endfacet
  facet normal 0 0 1
    outer loop
      vertex 10.9625 4.88084 5
      vertex 13.7032 6.10105 5
      vertex 12.1353 8.81678 5
    endloop
  endfacet
  facet normal -0 0 1
    outer loop
      vertex 11.7378 -2.49494 5
      vertex 14.6722 -3.11868 5
      vertex 12 0 5
    endloop
  endfacet
  facet normal 0 0 1
    outer loop
      vertex 14.6722 -3.11868 5
      vertex 11.7378 -2.49494 5
      vertex 13.7032 -6.10105 5
    endloop
  endfacet
  facet normal 0 0 1
    outer loop
      vertex 14.6722 3.11868 5
      vertex 11.7378 2.49494 5
      vertex 12 0 5
    endloop
  endfacet
  facet normal 0 0 1
    outer loop
      vertex 9.7082 7.05342 5
      vertex 12.1353 8.81678 5
      vertex 11.0699 10 5
    endloop
  endfacet
  facet normal 0 0 1
    outer loop
      vertex 13.7032 6.10105 5
      vertex 10.9625 4.88084 5
      vertex 11.7378 2.49494 5
    endloop
  endfacet
  facet normal 0 0 1
    outer loop
      vertex 12.1353 8.81678 5
      vertex 9.7082 7.05342 5
      vertex 10.9625 4.88084 5
    endloop
  endfacet
  facet normal 0 0 1
    outer loop
      vertex 9 7.83996 5
      vertex 11.0699 10 5
      vertex 9 10 5
    endloop
  endfacet
  facet normal 0 0 1
    outer loop
      vertex 11.0699 10 5
      vertex 9 7.83996 5
      vertex 9.7082 7.05342 5
    endloop
  endfacet
  facet normal -0 0 1
    outer loop
      vertex 10.9625 -4.88084 5
      vertex 13.7032 -6.10105 5
      vertex 11.7378 -2.49494 5
    endloop
  endfacet
  facet normal 0 0 1
    outer loop
      vertex 13.7032 -6.10105 5
      vertex 10.9625 -4.88084 5
      vertex 12.1353 -8.81678 5
    endloop
  endfacet
  facet normal -0 0 1
    outer loop
      vertex 9.7082 -7.05342 5
      vertex 12.1353 -8.81678 5
      vertex 10.9625 -4.88084 5
    endloop
  endfacet
  facet normal 0 0 1
    outer loop
      vertex 12.1353 -8.81678 5
      vertex 9.7082 -7.05342 5
      vertex 11.0699 -10 5
    endloop
  endfacet
  facet normal -0 0 1
    outer loop
      vertex 9 -7.83996 5
      vertex 11.0699 -10 5
      vertex 9.7082 -7.05342 5
    endloop
  endfacet
  facet normal 0 0 1
    outer loop
      vertex 11.0699 -10 5
      vertex 9 -7.83996 5
      vertex 9 -10 5
    endloop
  endfacet
  facet normal 0 1 -0
    outer loop
      vertex 11.0699 -10 5
      vertex 9 -10 10
      vertex 11.0699 -10 10
    endloop
  endfacet
  facet normal 0 1 0
    outer loop
      vertex 9 -10 10
      vertex 11.0699 -10 5
      vertex 9 -10 5
    endloop
  endfacet
  facet normal -0.866032 -0.499988 0
    outer loop
      vertex 10.9625 4.88084 -5
      vertex 9.7082 7.05342 5
      vertex 9.7082 7.05342 -5
    endloop
  endfacet
  facet normal -0.866032 -0.499988 0
    outer loop
      vertex 9.7082 7.05342 5
      vertex 10.9625 4.88084 -5
      vertex 10.9625 4.88084 5
    endloop
  endfacet
  facet normal 0.951049 -0.309039 0
    outer loop
      vertex -11.7378 2.49494 10
      vertex -11.2896 3.87425 5
      vertex -11.2896 3.87425 10
    endloop
  endfacet
  facet normal 0.951049 -0.309039 0
    outer loop
      vertex -11.2896 3.87425 5
      vertex -11.7378 2.49494 10
      vertex -11.2896 3.87425 -5
    endloop
  endfacet
  facet normal 0.951049 -0.309039 0
    outer loop
      vertex -11.7378 2.49494 -10
      vertex -11.2896 3.87425 -5
      vertex -11.7378 2.49494 10
    endloop
  endfacet
  facet normal 0.951049 -0.309039 0
    outer loop
      vertex -11.2896 3.87425 -5
      vertex -11.7378 2.49494 -10
      vertex -11.2896 3.87425 -10
    endloop
  endfacet
  facet normal 0.951046 -0.30905 0
    outer loop
      vertex -11.2896 3.87425 5
      vertex -10.9625 4.88084 -5
      vertex -10.9625 4.88084 5
    endloop
  endfacet
  facet normal 0.951046 -0.30905 0
    outer loop
      vertex -10.9625 4.88084 -5
      vertex -11.2896 3.87425 5
      vertex -11.2896 3.87425 -5
    endloop
  endfacet
  facet normal -0.743147 -0.669129 0
    outer loop
      vertex 9.7082 7.05342 -5
      vertex 9 7.83996 5
      vertex 9 7.83996 -5
    endloop
  endfacet
  facet normal -0.743147 -0.669129 0
    outer loop
      vertex 9 7.83996 5
      vertex 9.7082 7.05342 -5
      vertex 9.7082 7.05342 5
    endloop
  endfacet
  facet normal -0.743147 -0.669128 -0
    outer loop
      vertex 9 7.83996 -5
      vertex 8.02957 8.91774 -10
      vertex 9 7.83996 -10
    endloop
  endfacet
  facet normal -0.743147 -0.669128 0
    outer loop
      vertex 8.02957 8.91774 -10
      vertex 9 7.83996 -5
      vertex 8.02957 8.91774 10
    endloop
  endfacet
  facet normal -0.743147 -0.669128 -0
    outer loop
      vertex 9 7.83996 5
      vertex 8.02957 8.91774 10
      vertex 9 7.83996 -5
    endloop
  endfacet
  facet normal -0.743147 -0.669128 0
    outer loop
      vertex 8.02957 8.91774 10
      vertex 9 7.83996 5
      vertex 9 7.83996 10
    endloop
  endfacet
  facet normal -0.207954 -0.978139 -0
    outer loop
      vertex 1.25434 11.9343 5
      vertex 1.25434 11.9343 -5
      vertex 2.28961 11.7142 5
    endloop
  endfacet
  facet normal -0.207891 -0.978152 0
    outer loop
      vertex 2.28961 11.7142 5
      vertex 3.7082 11.4127 10
      vertex 2.28961 11.7142 10
    endloop
  endfacet
  facet normal -0.207954 -0.978139 0
    outer loop
      vertex 2.28961 11.7142 -5
      vertex 2.28961 11.7142 5
      vertex 1.25434 11.9343 -5
    endloop
  endfacet
  facet normal -0.207891 -0.978152 -0
    outer loop
      vertex 2.28961 11.7142 5
      vertex 2.28961 11.7142 -5
      vertex 3.7082 11.4127 10
    endloop
  endfacet
  facet normal -0.207891 -0.978152 0
    outer loop
      vertex 3.7082 11.4127 -10
      vertex 2.28961 11.7142 -5
      vertex 2.28961 11.7142 -10
    endloop
  endfacet
  facet normal -0.207891 -0.978152 0
    outer loop
      vertex 2.28961 11.7142 -5
      vertex 3.7082 11.4127 -10
      vertex 3.7082 11.4127 10
    endloop
  endfacet
  facet normal 0.406745 -0.913542 0
    outer loop
      vertex -6 10.3923 -5
      vertex -3.7082 11.4127 5
      vertex -6 10.3923 5
    endloop
  endfacet
  facet normal 0.406745 -0.913542 0
    outer loop
      vertex -3.7082 11.4127 5
      vertex -6 10.3923 -5
      vertex -3.7082 11.4127 -5
    endloop
  endfacet
  facet normal -0.994523 0.104517 0
    outer loop
      vertex 11.7378 -2.49494 -5
      vertex 12 0 5
      vertex 12 0 -5
    endloop
  endfacet
  facet normal -0.994523 0.104517 0
    outer loop
      vertex 12 0 5
      vertex 11.7378 -2.49494 -5
      vertex 11.7378 -2.49494 5
    endloop
  endfacet
  facet normal -0.587783 -0.809019 0
    outer loop
      vertex 6 10.3923 -10
      vertex 8.02957 8.91774 10
      vertex 6 10.3923 10
    endloop
  endfacet
  facet normal -0.587783 -0.809019 -0
    outer loop
      vertex 8.02957 8.91774 10
      vertex 6 10.3923 -10
      vertex 8.02957 8.91774 -10
    endloop
  endfacet
  facet normal 0 -1 0
    outer loop
      vertex -1.25434 11.9343 -5
      vertex 1.25434 11.9343 5
      vertex -1.25434 11.9343 5
    endloop
  endfacet
  facet normal 0 -1 -0
    outer loop
      vertex 1.25434 11.9343 5
      vertex -1.25434 11.9343 -5
      vertex 1.25434 11.9343 -5
    endloop
  endfacet
  facet normal -0.406745 -0.913542 0
    outer loop
      vertex 3.7082 11.4127 -10
      vertex 6 10.3923 10
      vertex 3.7082 11.4127 10
    endloop
  endfacet
  facet normal -0.406745 -0.913542 -0
    outer loop
      vertex 6 10.3923 10
      vertex 3.7082 11.4127 -10
      vertex 6 10.3923 -10
    endloop
  endfacet
  facet normal 0.994523 -0.104517 0
    outer loop
      vertex -12 0 10
      vertex -11.7378 2.49494 -10
      vertex -11.7378 2.49494 10
    endloop
  endfacet
  facet normal 0.994523 -0.104517 0
    outer loop
      vertex -11.7378 2.49494 -10
      vertex -12 0 10
      vertex -12 0 -10
    endloop
  endfacet
  facet normal 0.866032 -0.499988 0
    outer loop
      vertex -10.9625 4.88084 5
      vertex -9.7082 7.05342 -5
      vertex -9.7082 7.05342 5
    endloop
  endfacet
  facet normal 0.866032 -0.499988 0
    outer loop
      vertex -9.7082 7.05342 -5
      vertex -10.9625 4.88084 5
      vertex -10.9625 4.88084 -5
    endloop
  endfacet
  facet normal 0.587783 -0.809019 0
    outer loop
      vertex -8.02957 8.91774 -5
      vertex -6 10.3923 5
      vertex -8.02957 8.91774 5
    endloop
  endfacet
  facet normal 0.587783 -0.809019 0
    outer loop
      vertex -6 10.3923 5
      vertex -8.02957 8.91774 -5
      vertex -6 10.3923 -5
    endloop
  endfacet
  facet normal 0.207918 -0.978146 0
    outer loop
      vertex -3.7082 11.4127 -5
      vertex -1.25434 11.9343 5
      vertex -3.7082 11.4127 5
    endloop
  endfacet
  facet normal 0.207918 -0.978146 0
    outer loop
      vertex -1.25434 11.9343 5
      vertex -3.7082 11.4127 -5
      vertex -1.25434 11.9343 -5
    endloop
  endfacet
  facet normal 0.743147 -0.669128 0
    outer loop
      vertex -9.7082 7.05342 5
      vertex -8.02957 8.91774 -5
      vertex -8.02957 8.91774 5
    endloop
  endfacet
  facet normal 0.743147 -0.669128 0
    outer loop
      vertex -8.02957 8.91774 -5
      vertex -9.7082 7.05342 5
      vertex -9.7082 7.05342 -5
    endloop
  endfacet
  facet normal -0.994523 -0.104517 0
    outer loop
      vertex 12 0 -5
      vertex 11.7378 2.49494 5
      vertex 11.7378 2.49494 -5
    endloop
  endfacet
  facet normal -0.994523 -0.104517 0
    outer loop
      vertex 11.7378 2.49494 5
      vertex 12 0 -5
      vertex 12 0 5
    endloop
  endfacet
  facet normal -0.951048 0.309044 0
    outer loop
      vertex 10.9625 -4.88084 -5
      vertex 11.7378 -2.49494 5
      vertex 11.7378 -2.49494 -5
    endloop
  endfacet
  facet normal -0.951048 0.309044 0
    outer loop
      vertex 11.7378 -2.49494 5
      vertex 10.9625 -4.88084 -5
      vertex 10.9625 -4.88084 5
    endloop
  endfacet
  facet normal 0.866032 0.499988 0
    outer loop
      vertex -9.7082 -7.05342 5
      vertex -10.9625 -4.88084 -5
      vertex -10.9625 -4.88084 5
    endloop
  endfacet
  facet normal 0.866032 0.499988 0
    outer loop
      vertex -10.9625 -4.88084 -5
      vertex -9.7082 -7.05342 5
      vertex -9.7082 -7.05342 -5
    endloop
  endfacet
  facet normal -0.587783 0.809019 0
    outer loop
      vertex 8.02957 -8.91774 -10
      vertex 6 -10.3923 10
      vertex 8.02957 -8.91774 10
    endloop
  endfacet
  facet normal -0.587783 0.809019 0
    outer loop
      vertex 6 -10.3923 10
      vertex 8.02957 -8.91774 -10
      vertex 6 -10.3923 -10
    endloop
  endfacet
  facet normal -0.951048 -0.309044 0
    outer loop
      vertex 11.7378 2.49494 -5
      vertex 10.9625 4.88084 5
      vertex 10.9625 4.88084 -5
    endloop
  endfacet
  facet normal -0.951048 -0.309044 0
    outer loop
      vertex 10.9625 4.88084 5
      vertex 11.7378 2.49494 -5
      vertex 11.7378 2.49494 5
    endloop
  endfacet
  facet normal -0.866032 0.499988 0
    outer loop
      vertex 9.7082 -7.05342 -5
      vertex 10.9625 -4.88084 5
      vertex 10.9625 -4.88084 -5
    endloop
  endfacet
  facet normal -0.866032 0.499988 0
    outer loop
      vertex 10.9625 -4.88084 5
      vertex 9.7082 -7.05342 -5
      vertex 9.7082 -7.05342 5
    endloop
  endfacet
  facet normal 0 1 -0
    outer loop
      vertex 1.25434 -11.9343 -5
      vertex -1.25434 -11.9343 5
      vertex 1.25434 -11.9343 5
    endloop
  endfacet
  facet normal 0 1 0
    outer loop
      vertex -1.25434 -11.9343 5
      vertex 1.25434 -11.9343 -5
      vertex -1.25434 -11.9343 -5
    endloop
  endfacet
  facet normal 0.994523 0.104517 0
    outer loop
      vertex -11.7378 -2.49494 10
      vertex -12 0 -10
      vertex -12 0 10
    endloop
  endfacet
  facet normal 0.994523 0.104517 0
    outer loop
      vertex -12 0 -10
      vertex -11.7378 -2.49494 10
      vertex -11.7378 -2.49494 -10
    endloop
  endfacet
  facet normal -0.207891 0.978152 0
    outer loop
      vertex 3.7082 -11.4127 10
      vertex 2.28961 -11.7142 5
      vertex 2.28961 -11.7142 10
    endloop
  endfacet
  facet normal -0.207954 0.978139 0
    outer loop
      vertex 2.28961 -11.7142 5
      vertex 2.28961 -11.7142 -5
      vertex 1.25434 -11.9343 5
    endloop
  endfacet
  facet normal -0.207891 0.978152 0
    outer loop
      vertex 3.7082 -11.4127 10
      vertex 2.28961 -11.7142 -5
      vertex 2.28961 -11.7142 5
    endloop
  endfacet
  facet normal -0.207891 0.978152 0
    outer loop
      vertex 3.7082 -11.4127 -10
      vertex 2.28961 -11.7142 -5
      vertex 3.7082 -11.4127 10
    endloop
  endfacet
  facet normal -0.207891 0.978152 0
    outer loop
      vertex 2.28961 -11.7142 -5
      vertex 3.7082 -11.4127 -10
      vertex 2.28961 -11.7142 -10
    endloop
  endfacet
  facet normal -0.207954 0.978139 0
    outer loop
      vertex 1.25434 -11.9343 5
      vertex 2.28961 -11.7142 -5
      vertex 1.25434 -11.9343 -5
    endloop
  endfacet
  facet normal -0.406745 0.913542 0
    outer loop
      vertex 6 -10.3923 -10
      vertex 3.7082 -11.4127 10
      vertex 6 -10.3923 10
    endloop
  endfacet
  facet normal -0.406745 0.913542 0
    outer loop
      vertex 3.7082 -11.4127 10
      vertex 6 -10.3923 -10
      vertex 3.7082 -11.4127 -10
    endloop
  endfacet
  facet normal 0.951046 0.30905 0
    outer loop
      vertex -10.9625 -4.88084 5
      vertex -11.2896 -3.87425 -5
      vertex -11.2896 -3.87425 5
    endloop
  endfacet
  facet normal 0.951046 0.30905 0
    outer loop
      vertex -11.2896 -3.87425 -5
      vertex -10.9625 -4.88084 5
      vertex -10.9625 -4.88084 -5
    endloop
  endfacet
  facet normal 0.951049 0.309039 -0
    outer loop
      vertex -11.2896 -3.87425 5
      vertex -11.7378 -2.49494 10
      vertex -11.2896 -3.87425 10
    endloop
  endfacet
  facet normal 0.951049 0.309039 0
    outer loop
      vertex -11.7378 -2.49494 10
      vertex -11.2896 -3.87425 5
      vertex -11.7378 -2.49494 -10
    endloop
  endfacet
  facet normal 0.951049 0.309039 -0
    outer loop
      vertex -11.2896 -3.87425 -5
      vertex -11.7378 -2.49494 -10
      vertex -11.2896 -3.87425 5
    endloop
  endfacet
  facet normal 0.951049 0.309039 0
    outer loop
      vertex -11.7378 -2.49494 -10
      vertex -11.2896 -3.87425 -5
      vertex -11.2896 -3.87425 -10
    endloop
  endfacet
  facet normal 0.743147 0.669128 0
    outer loop
      vertex -8.02957 -8.91774 5
      vertex -9.7082 -7.05342 -5
      vertex -9.7082 -7.05342 5
    endloop
  endfacet
  facet normal 0.743147 0.669128 0
    outer loop
      vertex -9.7082 -7.05342 -5
      vertex -8.02957 -8.91774 5
      vertex -8.02957 -8.91774 -5
    endloop
  endfacet
  facet normal -0.743147 0.669128 0
    outer loop
      vertex 8.02957 -8.91774 -10
      vertex 9 -7.83996 -5
      vertex 9 -7.83996 -10
    endloop
  endfacet
  facet normal -0.743147 0.669128 0
    outer loop
      vertex 9 -7.83996 -5
      vertex 8.02957 -8.91774 -10
      vertex 9 -7.83996 5
    endloop
  endfacet
  facet normal -0.743147 0.669128 0
    outer loop
      vertex 8.02957 -8.91774 10
      vertex 9 -7.83996 5
      vertex 8.02957 -8.91774 -10
    endloop
  endfacet
  facet normal -0.743147 0.669128 0
    outer loop
      vertex 9 -7.83996 5
      vertex 8.02957 -8.91774 10
      vertex 9 -7.83996 10
    endloop
  endfacet
  facet normal -0.743147 0.669129 0
    outer loop
      vertex 9 -7.83996 -5
      vertex 9.7082 -7.05342 5
      vertex 9.7082 -7.05342 -5
    endloop
  endfacet
  facet normal -0.743147 0.669129 0
    outer loop
      vertex 9.7082 -7.05342 5
      vertex 9 -7.83996 -5
      vertex 9 -7.83996 5
    endloop
  endfacet
  facet normal 0.587783 0.809019 -0
    outer loop
      vertex -6 -10.3923 -5
      vertex -8.02957 -8.91774 5
      vertex -6 -10.3923 5
    endloop
  endfacet
  facet normal 0.587783 0.809019 0
    outer loop
      vertex -8.02957 -8.91774 5
      vertex -6 -10.3923 -5
      vertex -8.02957 -8.91774 -5
    endloop
  endfacet
  facet normal 0.406745 0.913542 -0
    outer loop
      vertex -3.7082 -11.4127 -5
      vertex -6 -10.3923 5
      vertex -3.7082 -11.4127 5
    endloop
  endfacet
  facet normal 0.406745 0.913542 0
    outer loop
      vertex -6 -10.3923 5
      vertex -3.7082 -11.4127 -5
      vertex -6 -10.3923 -5
    endloop
  endfacet
  facet normal 0.207918 0.978146 -0
    outer loop
      vertex -1.25434 -11.9343 -5
      vertex -3.7082 -11.4127 5
      vertex -1.25434 -11.9343 5
    endloop
  endfacet
  facet normal 0.207918 0.978146 0
    outer loop
      vertex -3.7082 -11.4127 5
      vertex -1.25434 -11.9343 -5
      vertex -3.7082 -11.4127 -5
    endloop
  endfacet
  facet normal 0.994521 0.104533 0
    outer loop
      vertex 15 0 5
      vertex 14.6722 3.11868 -5
      vertex 14.6722 3.11868 5
    endloop
  endfacet
  facet normal 0.994521 0.104533 0
    outer loop
      vertex 14.6722 3.11868 -5
      vertex 15 0 5
      vertex 15 0 -5
    endloop
  endfacet
  facet normal -0.994521 0.104533 0
    outer loop
      vertex -15 0 -10
      vertex -14.6722 3.11868 10
      vertex -14.6722 3.11868 -10
    endloop
  endfacet
  facet normal -0.994521 0.104533 0
    outer loop
      vertex -14.6722 3.11868 10
      vertex -15 0 -10
      vertex -15 0 10
    endloop
  endfacet
  facet normal 0 1 -0
    outer loop
      vertex 1.56793 14.9178 -5
      vertex -1.56793 14.9178 5
      vertex 1.56793 14.9178 5
    endloop
  endfacet
  facet normal 0 1 0
    outer loop
      vertex -1.56793 14.9178 5
      vertex 1.56793 14.9178 -5
      vertex -1.56793 14.9178 -5
    endloop
  endfacet
  facet normal 0 -1 0
    outer loop
      vertex -1.56793 -14.9178 -5
      vertex 1.56793 -14.9178 5
      vertex -1.56793 -14.9178 5
    endloop
  endfacet
  facet normal 0 -1 -0
    outer loop
      vertex 1.56793 -14.9178 5
      vertex -1.56793 -14.9178 -5
      vertex 1.56793 -14.9178 -5
    endloop
  endfacet
  facet normal 0.743137 0.669139 0
    outer loop
      vertex 12.1353 8.81678 5
      vertex 11.0699 10 -5
      vertex 11.0699 10 5
    endloop
  endfacet
  facet normal 0.743137 0.669139 0
    outer loop
      vertex 11.0699 10 -5
      vertex 12.1353 8.81678 5
      vertex 12.1353 8.81678 -5
    endloop
  endfacet
  facet normal 0.743159 0.669115 -0
    outer loop
      vertex 11.0699 10 5
      vertex 10.037 11.1472 10
      vertex 11.0699 10 10
    endloop
  endfacet
  facet normal 0.743159 0.669115 0
    outer loop
      vertex 10.037 11.1472 10
      vertex 11.0699 10 5
      vertex 10.037 11.1472 -10
    endloop
  endfacet
  facet normal 0.743159 0.669115 -0
    outer loop
      vertex 11.0699 10 -5
      vertex 10.037 11.1472 -10
      vertex 11.0699 10 5
    endloop
  endfacet
  facet normal 0.743159 0.669115 0
    outer loop
      vertex 10.037 11.1472 -10
      vertex 11.0699 10 -5
      vertex 11.0699 10 -10
    endloop
  endfacet
  facet normal -0.587777 0.809023 0
    outer loop
      vertex -7.5 12.9904 -5
      vertex -10.037 11.1472 5
      vertex -7.5 12.9904 5
    endloop
  endfacet
  facet normal -0.587777 0.809023 0
    outer loop
      vertex -10.037 11.1472 5
      vertex -7.5 12.9904 -5
      vertex -10.037 11.1472 -5
    endloop
  endfacet
  facet normal -0.207918 0.978146 0
    outer loop
      vertex -1.56793 14.9178 -5
      vertex -4.63525 14.2658 5
      vertex -1.56793 14.9178 5
    endloop
  endfacet
  facet normal -0.207918 0.978146 0
    outer loop
      vertex -4.63525 14.2658 5
      vertex -1.56793 14.9178 -5
      vertex -4.63525 14.2658 -5
    endloop
  endfacet
  facet normal 0.866029 0.499993 0
    outer loop
      vertex 13.7032 6.10105 5
      vertex 12.1353 8.81678 -5
      vertex 12.1353 8.81678 5
    endloop
  endfacet
  facet normal 0.866029 0.499993 0
    outer loop
      vertex 12.1353 8.81678 -5
      vertex 13.7032 6.10105 5
      vertex 13.7032 6.10105 -5
    endloop
  endfacet
  facet normal 0.951059 0.309008 0
    outer loop
      vertex 14.6722 3.11868 5
      vertex 13.7032 6.10105 -5
      vertex 13.7032 6.10105 5
    endloop
  endfacet
  facet normal 0.951059 0.309008 0
    outer loop
      vertex 13.7032 6.10105 -5
      vertex 14.6722 3.11868 5
      vertex 14.6722 3.11868 -5
    endloop
  endfacet
  facet normal 0.406718 0.913554 -0
    outer loop
      vertex 7.5 12.9904 -10
      vertex 4.63525 14.2658 10
      vertex 7.5 12.9904 10
    endloop
  endfacet
  facet normal 0.406718 0.913554 0
    outer loop
      vertex 4.63525 14.2658 10
      vertex 7.5 12.9904 -10
      vertex 4.63525 14.2658 -10
    endloop
  endfacet
  facet normal 0.207944 0.978141 0
    outer loop
      vertex 4.63525 14.2658 10
      vertex 3.12531 14.5868 5
      vertex 3.12531 14.5868 10
    endloop
  endfacet
  facet normal 0.207893 0.978152 0
    outer loop
      vertex 3.12531 14.5868 5
      vertex 3.12531 14.5868 -5
      vertex 1.56793 14.9178 5
    endloop
  endfacet
  facet normal 0.207944 0.978141 0
    outer loop
      vertex 4.63525 14.2658 10
      vertex 3.12531 14.5868 -5
      vertex 3.12531 14.5868 5
    endloop
  endfacet
  facet normal 0.207944 0.978141 -0
    outer loop
      vertex 4.63525 14.2658 -10
      vertex 3.12531 14.5868 -5
      vertex 4.63525 14.2658 10
    endloop
  endfacet
  facet normal 0.207944 0.978141 0
    outer loop
      vertex 3.12531 14.5868 -5
      vertex 4.63525 14.2658 -10
      vertex 3.12531 14.5868 -10
    endloop
  endfacet
  facet normal 0.207893 0.978152 0
    outer loop
      vertex 1.56793 14.9178 5
      vertex 3.12531 14.5868 -5
      vertex 1.56793 14.9178 -5
    endloop
  endfacet
  facet normal 0.587777 0.809023 -0
    outer loop
      vertex 10.037 11.1472 -10
      vertex 7.5 12.9904 10
      vertex 10.037 11.1472 10
    endloop
  endfacet
  facet normal 0.587777 0.809023 0
    outer loop
      vertex 7.5 12.9904 10
      vertex 10.037 11.1472 -10
      vertex 7.5 12.9904 -10
    endloop
  endfacet
  facet normal -0.866029 0.499993 0
    outer loop
      vertex -13.7032 6.10105 -5
      vertex -12.1353 8.81678 5
      vertex -12.1353 8.81678 -5
    endloop
  endfacet
  facet normal -0.866029 0.499993 0
    outer loop
      vertex -12.1353 8.81678 5
      vertex -13.7032 6.10105 -5
      vertex -13.7032 6.10105 5
    endloop
  endfacet
  facet normal -0.743148 0.669127 0
    outer loop
      vertex -12.1353 8.81678 -5
      vertex -10.037 11.1472 5
      vertex -10.037 11.1472 -5
    endloop
  endfacet
  facet normal -0.743148 0.669127 0
    outer loop
      vertex -10.037 11.1472 5
      vertex -12.1353 8.81678 -5
      vertex -12.1353 8.81678 5
    endloop
  endfacet
  facet normal -0.95106 0.309007 0
    outer loop
      vertex -14.6722 3.11868 -10
      vertex -14.1952 4.58679 -5
      vertex -14.1952 4.58679 -10
    endloop
  endfacet
  facet normal -0.95106 0.309007 0
    outer loop
      vertex -14.1952 4.58679 -5
      vertex -14.6722 3.11868 -10
      vertex -14.1952 4.58679 5
    endloop
  endfacet
  facet normal -0.95106 0.309007 0
    outer loop
      vertex -14.6722 3.11868 10
      vertex -14.1952 4.58679 5
      vertex -14.6722 3.11868 -10
    endloop
  endfacet
  facet normal -0.95106 0.309007 0
    outer loop
      vertex -14.1952 4.58679 5
      vertex -14.6722 3.11868 10
      vertex -14.1952 4.58679 10
    endloop
  endfacet
  facet normal -0.951059 0.30901 0
    outer loop
      vertex -14.1952 4.58679 -5
      vertex -13.7032 6.10105 5
      vertex -13.7032 6.10105 -5
    endloop
  endfacet
  facet normal -0.951059 0.30901 0
    outer loop
      vertex -13.7032 6.10105 5
      vertex -14.1952 4.58679 -5
      vertex -14.1952 4.58679 5
    endloop
  endfacet
  facet normal -0.406718 0.913554 0
    outer loop
      vertex -4.63525 14.2658 -5
      vertex -7.5 12.9904 5
      vertex -4.63525 14.2658 5
    endloop
  endfacet
  facet normal -0.406718 0.913554 0
    outer loop
      vertex -7.5 12.9904 5
      vertex -4.63525 14.2658 -5
      vertex -7.5 12.9904 -5
    endloop
  endfacet
  facet normal 0.994521 -0.104533 0
    outer loop
      vertex 14.6722 -3.11868 5
      vertex 15 0 -5
      vertex 15 0 5
    endloop
  endfacet
  facet normal 0.994521 -0.104533 0
    outer loop
      vertex 15 0 -5
      vertex 14.6722 -3.11868 5
      vertex 14.6722 -3.11868 -5
    endloop
  endfacet
  facet normal 0.207893 -0.978152 0
    outer loop
      vertex 1.56793 -14.9178 5
      vertex 1.56793 -14.9178 -5
      vertex 3.12531 -14.5868 5
    endloop
  endfacet
  facet normal 0.207944 -0.978141 0
    outer loop
      vertex 3.12531 -14.5868 5
      vertex 4.63525 -14.2658 10
      vertex 3.12531 -14.5868 10
    endloop
  endfacet
  facet normal 0.207893 -0.978152 0
    outer loop
      vertex 3.12531 -14.5868 -5
      vertex 3.12531 -14.5868 5
      vertex 1.56793 -14.9178 -5
    endloop
  endfacet
  facet normal 0.207944 -0.978141 0
    outer loop
      vertex 3.12531 -14.5868 5
      vertex 3.12531 -14.5868 -5
      vertex 4.63525 -14.2658 10
    endloop
  endfacet
  facet normal 0.207944 -0.978141 0
    outer loop
      vertex 4.63525 -14.2658 -10
      vertex 3.12531 -14.5868 -5
      vertex 3.12531 -14.5868 -10
    endloop
  endfacet
  facet normal 0.207944 -0.978141 0
    outer loop
      vertex 3.12531 -14.5868 -5
      vertex 4.63525 -14.2658 -10
      vertex 4.63525 -14.2658 10
    endloop
  endfacet
  facet normal 0.866029 -0.499993 0
    outer loop
      vertex 12.1353 -8.81678 5
      vertex 13.7032 -6.10105 -5
      vertex 13.7032 -6.10105 5
    endloop
  endfacet
  facet normal 0.866029 -0.499993 0
    outer loop
      vertex 13.7032 -6.10105 -5
      vertex 12.1353 -8.81678 5
      vertex 12.1353 -8.81678 -5
    endloop
  endfacet
  facet normal -0.587777 -0.809023 0
    outer loop
      vertex -10.037 -11.1472 -5
      vertex -7.5 -12.9904 5
      vertex -10.037 -11.1472 5
    endloop
  endfacet
  facet normal -0.587777 -0.809023 -0
    outer loop
      vertex -7.5 -12.9904 5
      vertex -10.037 -11.1472 -5
      vertex -7.5 -12.9904 -5
    endloop
  endfacet
  facet normal -0.866029 -0.499993 0
    outer loop
      vertex -12.1353 -8.81678 -5
      vertex -13.7032 -6.10105 5
      vertex -13.7032 -6.10105 -5
    endloop
  endfacet
  facet normal -0.866029 -0.499993 0
    outer loop
      vertex -13.7032 -6.10105 5
      vertex -12.1353 -8.81678 -5
      vertex -12.1353 -8.81678 5
    endloop
  endfacet
  facet normal -0.743148 -0.669127 0
    outer loop
      vertex -10.037 -11.1472 -5
      vertex -12.1353 -8.81678 5
      vertex -12.1353 -8.81678 -5
    endloop
  endfacet
  facet normal -0.743148 -0.669127 0
    outer loop
      vertex -12.1353 -8.81678 5
      vertex -10.037 -11.1472 -5
      vertex -10.037 -11.1472 5
    endloop
  endfacet
  facet normal 0.587777 -0.809023 0
    outer loop
      vertex 7.5 -12.9904 -10
      vertex 10.037 -11.1472 10
      vertex 7.5 -12.9904 10
    endloop
  endfacet
  facet normal 0.587777 -0.809023 0
    outer loop
      vertex 10.037 -11.1472 10
      vertex 7.5 -12.9904 -10
      vertex 10.037 -11.1472 -10
    endloop
  endfacet
  facet normal 0.406718 -0.913554 0
    outer loop
      vertex 4.63525 -14.2658 -10
      vertex 7.5 -12.9904 10
      vertex 4.63525 -14.2658 10
    endloop
  endfacet
  facet normal 0.406718 -0.913554 0
    outer loop
      vertex 7.5 -12.9904 10
      vertex 4.63525 -14.2658 -10
      vertex 7.5 -12.9904 -10
    endloop
  endfacet
  facet normal 0.951059 -0.309008 0
    outer loop
      vertex 13.7032 -6.10105 5
      vertex 14.6722 -3.11868 -5
      vertex 14.6722 -3.11868 5
    endloop
  endfacet
  facet normal 0.951059 -0.309008 0
    outer loop
      vertex 14.6722 -3.11868 -5
      vertex 13.7032 -6.10105 5
      vertex 13.7032 -6.10105 -5
    endloop
  endfacet
  facet normal -0.207918 -0.978146 0
    outer loop
      vertex -4.63525 -14.2658 -5
      vertex -1.56793 -14.9178 5
      vertex -4.63525 -14.2658 5
    endloop
  endfacet
  facet normal -0.207918 -0.978146 -0
    outer loop
      vertex -1.56793 -14.9178 5
      vertex -4.63525 -14.2658 -5
      vertex -1.56793 -14.9178 -5
    endloop
  endfacet
  facet normal -0.951059 -0.30901 0
    outer loop
      vertex -13.7032 -6.10105 -5
      vertex -14.1952 -4.58679 5
      vertex -14.1952 -4.58679 -5
    endloop
  endfacet
  facet normal -0.951059 -0.30901 0
    outer loop
      vertex -14.1952 -4.58679 5
      vertex -13.7032 -6.10105 -5
      vertex -13.7032 -6.10105 5
    endloop
  endfacet
  facet normal -0.95106 -0.309007 -0
    outer loop
      vertex -14.1952 -4.58679 -5
      vertex -14.6722 -3.11868 -10
      vertex -14.1952 -4.58679 -10
    endloop
  endfacet
  facet normal -0.95106 -0.309007 0
    outer loop
      vertex -14.6722 -3.11868 -10
      vertex -14.1952 -4.58679 -5
      vertex -14.6722 -3.11868 10
    endloop
  endfacet
  facet normal -0.95106 -0.309007 -0
    outer loop
      vertex -14.1952 -4.58679 5
      vertex -14.6722 -3.11868 10
      vertex -14.1952 -4.58679 -5
    endloop
  endfacet
  facet normal -0.95106 -0.309007 0
    outer loop
      vertex -14.6722 -3.11868 10
      vertex -14.1952 -4.58679 5
      vertex -14.1952 -4.58679 10
    endloop
  endfacet
  facet normal -0.994521 -0.104533 0
    outer loop
      vertex -14.6722 -3.11868 -10
      vertex -15 0 10
      vertex -15 0 -10
    endloop
  endfacet
  facet normal -0.994521 -0.104533 0
    outer loop
      vertex -15 0 10
      vertex -14.6722 -3.11868 -10
      vertex -14.6722 -3.11868 10
    endloop
  endfacet
  facet normal 0.743159 -0.669115 0
    outer loop
      vertex 10.037 -11.1472 10
      vertex 11.0699 -10 5
      vertex 11.0699 -10 10
    endloop
  endfacet
  facet normal 0.743159 -0.669115 0
    outer loop
      vertex 11.0699 -10 5
      vertex 10.037 -11.1472 10
      vertex 11.0699 -10 -5
    endloop
  endfacet
  facet normal 0.743159 -0.669115 0
    outer loop
      vertex 10.037 -11.1472 -10
      vertex 11.0699 -10 -5
      vertex 10.037 -11.1472 10
    endloop
  endfacet
  facet normal 0.743159 -0.669115 0
    outer loop
      vertex 11.0699 -10 -5
      vertex 10.037 -11.1472 -10
      vertex 11.0699 -10 -10
    endloop
  endfacet
  facet normal 0.743137 -0.669139 0
    outer loop
      vertex 11.0699 -10 5
      vertex 12.1353 -8.81678 -5
      vertex 12.1353 -8.81678 5
    endloop
  endfacet
  facet normal 0.743137 -0.669139 0
    outer loop
      vertex 12.1353 -8.81678 -5
      vertex 11.0699 -10 5
      vertex 11.0699 -10 -5
    endloop
  endfacet
  facet normal -0.406718 -0.913554 0
    outer loop
      vertex -7.5 -12.9904 -5
      vertex -4.63525 -14.2658 5
      vertex -7.5 -12.9904 5
    endloop
  endfacet
  facet normal -0.406718 -0.913554 -0
    outer loop
      vertex -4.63525 -14.2658 5
      vertex -7.5 -12.9904 -5
      vertex -4.63525 -14.2658 -5
    endloop
  endfacet
endsolid OpenSCAD_Model
